{"title":"AFTER EARTH 2013 R6/CAM 720P CROPPED AC3 MURDER ","uid":8738712,"size":1494919150,"categoryP":"video","categoryS":"hd___movies","magnet":"?xt=urn:btih:544b5b0ec97248a3fa2bbce04e75d1d408f604ca&amp;dn=AFTER+EARTH+2013+R6%2FCAM+720P+CROPPED+AC3+MURDER+&amp;tr=udp%3A%2F%2Ftracker.openbittorrent.com%3A80&amp;tr=udp%3A%2F%2Fopen.demonii.com%3A1337&amp;tr=udp%3A%2F%2Ftracker.coppersurfer.tk%3A6969&amp;tr=udp%3A%2F%2Fexodus.desync.com%3A6969","seeders":1,"leechers":0,"uploader":".BONE.","files":-1,"time":1374732098,"description":"A crash landing leaves Kitai Raige and his father Cypher stranded on Earth, 1,000 years after events forced humanity's escape. With Cypher injured, Kitai must embark on a perilous journey to signal for help. \n\nGeneral\nComplete name                            : AFTER EARTH 2013 R6 720P NOSUBZ AC3 MURDER.mkv\nFormat                                   : Matroska\nFormat version                           : Version 4 / Version 2\nFile size                                : 1.39 GiB\nDuration                                 : 1h 30mn\nOverall bit rate                         : 2 200 Kbps\nEncoded date                             : UTC 2013-07-25 01:12:19\n\nVideo\nID                                       : 1\nFormat                                   : AVC\nFormat/Info                              : Advanced Video Codec\nFormat profile                           : &lt;a class=&quot;__cf_email__&quot; href=&quot;/cdn-cgi/l/email-protection&quot; data-cfemail=&quot;b7f5d6c4d2dbded9d2f7fb849987&quot;&gt;[email&amp;#160;protected]&lt;/a&gt;&lt;script cf-hash='f9e31' type=&quot;text/javascript&quot;&gt;\n/* &lt;![CDATA[ */!function(){try{var t=&quot;currentScript&quot;in document?document.currentScript:function(){for(var t=document.getElementsByTagName(&quot;script&quot;),e=t.length;e--;)if(t[e].getAttribute(&quot;cf-hash&quot;))return t[e]}();if(t&amp;&amp;t.previousSibling){var e,r,n,i,c=t.previousSibling,a=c.getAttribute(&quot;data-cfemail&quot;);if(a){for(e=&quot;&quot;,r=parseInt(a.substr(0,2),16),n=2;a.length-n;n+=2)i=parseInt(a.substr(n,2),16)^r,e+=String.fromCharCode(i);e=document.createTextNode(e),c.parentNode.replaceChild(e,c)}}}catch(u){}}();/* ]]&gt; */&lt;/script&gt;\nFormat settings, CABAC                   : No\nFormat settings, ReFrames                : 1 frame\nCodec ID                                 : V_MPEG4/ISO/AVC\nDuration                                 : 1h 30mn\nBit rate                                 : 2 028 Kbps\nWidth                                    : 1 280 pixels\nHeight                                   : 528 pixels\nDisplay aspect ratio                     : 2.40:1\nFrame rate mode                          : Constant\nFrame rate                               : 29.970 fps\nColor space                              : YUV\nChroma subsampling                       : 4:2:0\nBit depth                                : 8 bits\nScan type                                : Progressive\nBits/(Pixel*Frame)                       : 0.100\nStream size                              : 1.28 GiB (92%)\nWriting library                          : \nDefault                                  : Yes\nForced                                   : No\n\nAudio\nID                                       : 2\nFormat                                   : AC-3\nFormat/Info                              : Audio Coding 3\nMode extension                           : CM (complete main)\nFormat settings, Endianness              : Big\nCodec ID                                 : A_AC3\nDuration                                 : 1h 30mn\nBit rate mode                            : Constant\nBit rate                                 : 128 Kbps\nChannel(s)                               : 2 channels\nChannel positions                        : Front: L R\nSampling rate                            : 48.0 KHz\nBit depth                                : 16 bits\nCompression mode                         : Lossy\nStream size                              : 82.8 MiB (6%)\nDefault                                  : Yes\nForced                                   : No","torrent":{"xt":"urn:btih:544b5b0ec97248a3fa2bbce04e75d1d408f604ca","amp;dn":"AFTER+EARTH+2013+R6%2FCAM+720P+CROPPED+AC3+MURDER+","amp;tr":["udp%3A%2F%2Ftracker.openbittorrent.com%3A80","udp%3A%2F%2Fopen.demonii.com%3A1337","udp%3A%2F%2Ftracker.coppersurfer.tk%3A6969","udp%3A%2F%2Fexodus.desync.com%3A6969"],"infoHash":"544b5b0ec97248a3fa2bbce04e75d1d408f604ca","infoHashBuffer":{"type":"Buffer","data":[84,75,91,14,201,114,72,163,250,43,188,224,78,117,209,212,8,246,4,202]},"announce":[],"urlList":[]}}